<?xml version="1.0" encoding="utf-8"?>
<!-- Generator: Adobe Illustrator 26.1.0, SVG Export Plug-In . SVG Version: 6.00 Build 0)  -->
<svg version="1.1" id="Layer_2" xmlns="http://www.w3.org/2000/svg" xmlns:xlink="http://www.w3.org/1999/xlink" x="0px" y="0px"
	 viewBox="0 0 180 180" style="enable-background:new 0 0 180 180;" xml:space="preserve">
<style type="text/css">
	.st0{display:none;}
	.st1{fill:#FFFFFF;}
</style>
<path class="st0" d="M15.9,3.5l0-2.1c0-0.5-0.4-0.9-0.9-0.9c0,0,0,0,0,0c-0.5,0-0.9,0.4-0.9,0.9l0,2.1C5.1,4,5,12.5,5,12.6v1l1-0.1
	c0.1,0,0.1,0,0.2,0c-0.3,3,0.8,5.7,0.9,5.8l0.4,0.8l0.8-0.4c0,0,0.3-0.2,0.8-0.4c0,2.4,0.8,4.4,0.9,4.5l0.4,0.9l0.8-0.4
	c0,0,0.3-0.1,0.6-0.3c0.8,2.8,2.6,4.8,2.7,4.9l0.6,0.7l0.6-0.7c0.1-0.1,2-2.1,2.7-4.9c0.4,0.2,0.6,0.3,0.6,0.4l0.8,0.4l0.4-0.8
	c0-0.1,0.9-2,0.9-4.4c0.4,0.2,0.6,0.3,0.6,0.3l0.8,0.4l0.4-0.8c0.1-0.1,1.2-2.8,0.8-5.8c0.1,0,0.2,0,0.3,0l1,0.1v-1
	C25,12.5,24.9,4,15.9,3.5z M9.4,16.8c-0.4,0.4-0.8,0.6-1.1,0.9c-0.3-1-0.6-2.7-0.3-4.5c0,0,0.1,0,0.1,0c0.7-0.2,1.4-0.4,1.9-0.7
	c0,0,0.1,0,0.1-0.1c0.5-0.3,1-0.5,1.3-0.8c0.2,0.3,0.4,0.6,0.6,0.8c0,0,0.1,0.1,0.1,0.2c0,0.2-0.1,0.3-0.1,0.5c0,0.1,0,0.2-0.1,0.3
	c-0.1,0.4-0.3,0.7-0.4,1C11,15.2,10.3,16,9.4,16.8z M11.8,21.7C11.8,21.7,11.7,21.7,11.8,21.7c-0.3,0.2-0.5,0.4-0.7,0.5
	c-0.3-1-0.6-2.6-0.3-4.3c0.3-0.3,0.6-0.6,0.9-0.9c0.1,0.4,0.3,0.8,0.5,1.2c0,0.1,0,0.1,0.1,0.2c0,0.1,0.1,0.1,0.1,0.2
	c0.2,0.4,0.4,0.8,0.6,1.2c0.1,0.1,0.1,0.2,0.2,0.3c0.1,0.1,0.1,0.2,0.2,0.3c-0.1,0.1-0.2,0.2-0.2,0.3C12.6,21,12.2,21.4,11.8,21.7z
	 M13.1,15c0.1-0.3,0.3-0.6,0.4-0.9c0,0,0,0,0.1,0.1c0.6,0.5,1.4,0.9,1.4,0.9s0.8-0.4,1.4-0.9c0,0,0,0,0,0c0.1,0.2,0.2,0.4,0.3,0.6
	c0.1,0.2,0.1,0.3,0.2,0.4c0,0.3-0.1,0.7-0.1,1c0,0.1,0,0.1,0,0.1c-0.1,0.4-0.3,0.8-0.4,1.3c0,0.1,0,0.1-0.1,0.2
	c0,0.1-0.1,0.1-0.1,0.2c-0.4,0.9-0.9,1.5-1.1,1.9l0,0c-0.4-0.5-0.8-1.2-1.2-2c0,0,0-0.1,0-0.1c-0.2-0.5-0.4-0.9-0.5-1.4
	c0-0.1,0-0.1,0-0.2C13.2,15.7,13.1,15.3,13.1,15z M15,26.8c-0.6-0.8-1.5-2.3-1.8-4c0.1-0.1,0.2-0.2,0.3-0.2c0.2-0.2,0.4-0.4,0.6-0.6
	c0.1-0.1,0.1-0.1,0.2-0.2c0,0,0.1,0.1,0.1,0.1l0.5,0.5l0.1,0.1l0.3-0.3l0.3-0.4c0,0,0,0,0,0c0.1,0.1,0.2,0.2,0.3,0.2
	c0.2,0.2,0.4,0.4,0.6,0.5c0.1,0.1,0.2,0.2,0.3,0.3C16.5,24.5,15.6,26,15,26.8z M18.9,22.1c-0.2-0.1-0.4-0.3-0.6-0.5
	c-0.2-0.2-0.5-0.4-0.8-0.7c-0.1-0.1-0.2-0.2-0.2-0.3c-0.1-0.1-0.3-0.3-0.4-0.5c0,0,0,0,0-0.1c0.4-0.5,0.7-1.1,1-1.8
	c0.1-0.2,0.2-0.5,0.3-0.7c0.1-0.2,0.2-0.4,0.2-0.6c0.3,0.3,0.6,0.6,1,1C19.5,19.7,19.2,21.2,18.9,22.1z M21.6,17.6
	c-0.3-0.2-0.6-0.4-0.9-0.7l-0.1-0.1c-0.9-0.7-1.6-1.5-2.1-2.4c-0.2-0.4-0.4-0.7-0.5-1.2c-0.1-0.2-0.1-0.4-0.2-0.6
	c0.1-0.1,0.2-0.2,0.2-0.3c0.2-0.2,0.4-0.6,0.6-0.8c0.2,0.1,0.4,0.2,0.6,0.4c0.1,0.1,0.3,0.2,0.5,0.3c0.5,0.2,1,0.5,1.7,0.7
	c0.2,0,0.4,0.1,0.5,0.1C22.3,14.9,21.9,16.6,21.6,17.6z M22.9,11.6c-2.7-0.6-3.7-1.8-3.7-1.9l-0.9-1.3l-0.7,1.4
	c-0.2,0.6-0.6,1.1-1,1.6l-0.5,0.6c-0.1,0.1-0.7,0.7-0.9,0.9C15.2,12.9,15.1,13,15,13c-0.1-0.1-0.2-0.1-0.3-0.2c-0.3-0.2-1-0.9-1-0.9
	s-0.4-0.4-0.4-0.5c-0.4-0.5-0.7-1-1-1.6l-0.5-1l-0.1-0.3l0,0l0,0L11.3,9l-0.5,0.7c0,0-0.1,0.1-0.3,0.3C10.1,10.4,9,11.2,7,11.6
	c0,0-0.1,0-0.1,0c0.3-2,1.8-6.4,8.1-6.4c0,0,0,0,0,0c0,0,0,0,0,0c6.3,0,7.8,4.4,8.1,6.4C23,11.6,23,11.6,22.9,11.6z"/>
<path class="st0" d="M-23.9-18.5l-0.8-0.1c0,0-0.2,0-0.4,0c0.9-1.3,1.1-2.9,1.1-2.9c0-0.6,0-2.4,0-2.4c0-0.4-0.3-0.8-0.8-0.8
	c-0.4,0-0.8,0.3-0.8,0.8v1.6c-0.8,0.1-2,0.3-3.1,1.1c-0.1-1.8-1.1-3.2-1.5-3.7v-2.8c0-0.4-0.3-0.8-0.8-0.8s-0.8,0.3-0.8,0.8v2.8
	c-0.4,0.5-1.4,1.9-1.5,3.7c-1.1-0.8-2.3-1-3.1-1.1v-1.6c0-0.4-0.3-0.8-0.8-0.8s-0.8,0.3-0.8,0.8c0,0,0,1.8,0,2.4
	c0,0.1,0.2,1.6,1.1,2.9c-0.2,0-0.4,0-0.4,0l-0.8,0.1l0.1,0.8c0,0.1,0.2,1.6,1.1,2.9c-0.2,0-0.4,0-0.4,0l-0.8,0.1l0.1,0.8
	c0,0.1,0.2,1.6,1.1,2.9c-0.2,0-0.4,0-0.4,0l-0.8,0.1l0.1,0.8c0,0.1,0.3,2.5,2,4c1.4,1.2,3.3,1.3,4,1.3c0.1,0,0.1,0,0.1,0v4.6
	c0,0.4,0.3,0.8,0.8,0.8s0.8-0.3,0.8-0.8v-4.6c0,0,0,0,0.1,0c0.7,0,2.6-0.1,4-1.3c1.7-1.4,2-3.8,2-4l0.1-0.8l-0.8-0.1
	c0,0-0.2,0-0.4,0c0.9-1.3,1.1-2.9,1.1-2.9l0.1-0.8l-0.8-0.1c0,0-0.2,0-0.4,0c0.9-1.3,1.1-2.9,1.1-2.9L-23.9-18.5z M-28-12.3
	c0.7-0.6,1.6-0.8,2.2-0.9c-0.2,0.6-0.6,1.5-1.3,2c-0.7,0.6-1.6,0.8-2.2,0.9C-29-10.9-28.6-11.7-28-12.3z M-30.9-10
	c-0.1-0.6-0.4-1.6-1.1-2.5c0,0,0.1,0,0.2,0c0.1,0,0.2,0,0.2,0l0.6,0l0.6,0c0,0,0.1,0,0.2,0c0,0,0.1,0,0.2,0
	C-30.5-11.5-30.8-10.5-30.9-10z M-32.6-10.2c-0.7-0.1-1.5-0.3-2.2-0.9c-0.7-0.6-1.1-1.4-1.3-2c0.7,0.1,1.5,0.3,2.2,0.9
	C-33.1-11.7-32.8-10.9-32.6-10.2z M-30.9-23.4c0.4,0.6,0.8,1.4,0.8,2.3c0,0.9-0.4,1.7-0.7,2.3c-0.4-0.6-0.8-1.4-0.8-2.3
	C-31.6-22-31.2-22.8-30.9-23.4z M-31.8-16.2c0.1,0,0.2,0,0.2,0l0.6,0l0.6,0c0,0,0.1,0,0.2,0c0,0,0.1,0,0.2,0
	c-0.6,0.9-0.9,1.9-1.1,2.5c-0.1-0.6-0.4-1.6-1.1-2.5C-31.9-16.2-31.8-16.2-31.8-16.2z M-33.8-16.1c0.7,0.6,1.1,1.4,1.3,2
	c-0.7-0.1-1.5-0.3-2.2-0.9c-0.7-0.6-1.1-1.4-1.3-2C-35.4-16.9-34.5-16.7-33.8-16.1z M-28-16.1c0.7-0.6,1.6-0.8,2.2-0.9
	c-0.2,0.6-0.6,1.5-1.3,2c-0.7,0.6-1.6,0.8-2.2,0.9C-29-14.7-28.6-15.5-28-16.1z M-25.7-20.8c-0.2,0.6-0.6,1.5-1.3,2
	c-0.7,0.6-1.6,0.8-2.2,0.9c0.2-0.6,0.6-1.5,1.3-2C-27.3-20.4-26.4-20.7-25.7-20.8z M-33.8-19.9c0.7,0.6,1.1,1.4,1.3,2
	c-0.7-0.1-1.5-0.3-2.2-0.9c-0.7-0.6-1.1-1.4-1.3-2C-35.4-20.7-34.5-20.4-33.8-19.9z M-34.8-7.3c-0.7-0.6-1.1-1.4-1.3-2
	c0.7,0.1,1.5,0.3,2.2,0.9s1.1,1.4,1.3,2C-33.2-6.5-34.1-6.8-34.8-7.3z M-30.9-6.2c-0.1-0.6-0.4-1.6-1.1-2.5c0.1,0,0.1,0,0.2,0
	c0.1,0,0.2,0,0.2,0l0.6,0l0.6,0c0,0,0.1,0,0.2,0c0,0,0.1,0,0.2,0C-30.5-7.7-30.8-6.7-30.9-6.2z M-27-7.3c-0.7,0.6-1.6,0.8-2.2,0.9
	c0.2-0.6,0.6-1.5,1.3-2c0.7-0.6,1.6-0.8,2.2-0.9C-25.9-8.8-26.3-7.9-27-7.3z"/>
<g>
	<path class="st1" d="M160.9,141.6c-0.2-1.1-1.1-5-2.3-10.4c0.2-0.6,0-1.3-0.4-1.8c-3.7-16.5-10.1-44.1-12.6-48.9
		c-1.8-3.5-5-6-8-8.5c-2.7-2.3-5.6-4.6-7.4-7.6C127,59.1,119,35,116.7,28c3.2-1.3,5-4.9,4.1-8.4c-0.5-1.9-1.6-3.4-3.3-4.4
		s-3.6-1.3-5.4-0.8l-16,4c-3.8,1-6.2,4.9-5.2,8.7c0.5,1.9,1.6,3.4,3.3,4.4c1.1,0.7,2.4,1,3.7,1c0.2,0,0.4,0,0.6,0
		c1.3,7.3,5.6,32.3,5.2,38.6c-0.2,3.5-1.6,6.8-3,10.1c-1.5,3.6-3.1,7.4-3.1,11.3c0,8,15,60.6,15.2,61.1c1.5,5,7.3,7,14.4,7
		c3.9,0,8.2-0.6,12.3-1.6C151.4,156,162.5,149.5,160.9,141.6z M94.9,26.1c-0.2-0.8-0.1-1.7,0.4-2.4s1.1-1.2,1.9-1.4l16-4
		c0.3-0.1,0.5-0.1,0.8-0.1c0.6,0,1.1,0.2,1.6,0.5c0.7,0.4,1.2,1.1,1.5,2c0.4,1.7-0.6,3.4-2.3,3.8l-16,4
		C97.1,28.8,95.3,27.8,94.9,26.1z M104.6,82.7c1.5-3.6,3-7.3,3.3-11.5c0.4-6.8-4-32.5-5.3-39.6l10.3-2.6
		c2.3,6.9,10.4,31.6,13.9,37.5c2.1,3.5,5.2,6.1,8.3,8.6c2.8,2.3,5.5,4.6,7,7.3c0.4,0.7,0.9,2.1,1.4,3.9c-4.1,3.1-20.7,14.2-41.2,9.8
		c-0.3-1.6-0.5-2.9-0.5-3.6C101.8,89.3,103.2,86.1,104.6,82.7z M138.8,155c-11.3,2.8-20.7,1.7-22-2.6c-2.3-7.7-10.4-37.3-13.7-52.1
		c3.1,0.6,6.1,0.8,8.9,0.8c15.6,0,27.7-7.2,32.6-10.7c2.9,10.5,7,28.2,9.7,40.3c-0.7,1.1-2.3,3.1-5.2,5.2c-4,2.8-11.3,6.2-23.8,6.4
		c-1.1,0-2,0.9-2,2c0,1.1,0.9,2,2,2c0,0,0,0,0,0c17.3-0.3,26-6.3,30-10.6c0.7,3.1,1.2,5.5,1.4,6.7C157.9,146.8,150,152.2,138.8,155z
		"/>
	<path class="st1" d="M85.9,37.4L70,33.1c-1.8-0.5-3.8-0.2-5.4,0.7c-1.7,1-2.8,2.5-3.4,4.4C60.8,40.1,61,42,62,43.7
		c0.8,1.3,1.9,2.4,3.3,3c-2.4,7-10.8,30.9-14.1,36.2c-1.8,2.9-4.7,5.2-7.5,7.4c-3.1,2.4-6.2,5-8.1,8.4c-0.5,0.9-1.1,2.5-1.8,4.7
		c-0.3,0.4-0.4,0.8-0.4,1.3c-5.1,15.9-14,54.4-14.1,54.8c-1.7,7.9,9.2,14.5,20.8,17.6c4.4,1.2,8.9,1.9,13,1.9
		c6.8,0,12.4-1.9,13.9-6.7c0.2-0.5,16.1-52.8,16.2-60.8c0.1-3.9-1.4-7.7-2.9-11.3c-1.3-3.3-2.7-6.7-2.8-10.2
		c-0.2-6.3,4.5-31.2,5.9-38.5c0.3,0,0.5,0,0.8,0c1.2,0,2.5-0.3,3.6-1c1.7-1,2.8-2.5,3.4-4.4c0.5-1.8,0.2-3.8-0.7-5.4
		C89.3,39.1,87.8,37.9,85.9,37.4z M63,171.1c-1.3,4.3-10.8,5.2-22,2.2c-11.2-3-18.9-8.6-18-12.9c0.3-1.4,1-4.5,2-8.5
		c12,9.6,25.6,11.5,34.4,11.5c2.4,0,4.4-0.1,6-0.3C64.4,166.6,63.5,169.4,63,171.1z M73.4,90.1c0.2,4.1,1.6,7.9,3.1,11.5
		c1.4,3.4,2.6,6.7,2.6,9.8C79,116,71.6,142.3,66.7,159c-5.3,0.7-24.9,2.2-40.6-11.4c2.9-12.1,7.3-29.4,10.3-39.4
		c11.4,9.1,24.3,10,29.3,10c1.2,0,1.9-0.1,2-0.1c1.1-0.1,1.9-1.1,1.8-2.2c-0.1-1.1-1-1.9-2.2-1.8c-0.2,0-16.5,1.2-29.6-10.1
		c0.5-1.6,1-2.8,1.4-3.4c1.5-2.7,4.2-4.9,7.1-7.2c3.1-2.4,6.2-4.9,8.4-8.4c3.6-5.8,12.2-30.3,14.6-37.2l10.3,2.8
		C78,57.7,73.2,83.2,73.4,90.1z M87.1,45.2c-0.2,0.8-0.7,1.5-1.5,1.9c-0.7,0.4-1.6,0.5-2.4,0.3l-15.9-4.3c-1.7-0.5-2.7-2.2-2.2-3.9
		c0.2-0.8,0.7-1.5,1.5-1.9c0.5-0.3,1-0.4,1.6-0.4c0.3,0,0.5,0,0.8,0.1l15.9,4.3c0.8,0.2,1.5,0.7,1.9,1.5
		C87.2,43.5,87.3,44.3,87.1,45.2z"/>
	<path class="st1" d="M64.4,23l8.7,1.6c0.1,0,0.2,0,0.4,0c0.9,0,1.8-0.7,2-1.6c0.2-1.1-0.5-2.1-1.6-2.3l-8.7-1.6
		c-1.1-0.2-2.1,0.5-2.3,1.6C62.5,21.8,63.3,22.8,64.4,23z"/>
	<path class="st1" d="M87.6,12.2c0.2,0,0.4,0.1,0.5,0.1c0.9,0,1.7-0.6,1.9-1.5l2-7.3c0.3-1.1-0.3-2.2-1.4-2.5
		c-1.1-0.3-2.2,0.3-2.5,1.4l-2,7.3C86,10.8,86.6,11.9,87.6,12.2z"/>
	<path class="st1" d="M77.6,15c0.4,0.6,1,0.9,1.7,0.9c0.4,0,0.8-0.1,1.1-0.3c0.9-0.6,1.2-1.8,0.6-2.8l-6.5-9.9
		c-0.6-0.9-1.8-1.2-2.8-0.6c-0.9,0.6-1.2,1.8-0.6,2.8L77.6,15z"/>
</g>
</svg>
