<?xml version="1.0" encoding="utf-8"?>
<!-- Generator: Adobe Illustrator 26.1.0, SVG Export Plug-In . SVG Version: 6.00 Build 0)  -->
<svg version="1.1" id="Layer_2" xmlns="http://www.w3.org/2000/svg" xmlns:xlink="http://www.w3.org/1999/xlink" x="0px" y="0px"
	 viewBox="0 0 30 30" style="enable-background:new 0 0 30 30;" xml:space="preserve">
<style type="text/css">
	.st0{display:none;}
</style>
<path d="M15.9,3.5l0-2.1c0-0.5-0.4-0.9-0.9-0.9c0,0,0,0,0,0c-0.5,0-0.9,0.4-0.9,0.9l0,2.1C5.1,4,5,12.5,5,12.6v1l1-0.1
	c0.1,0,0.1,0,0.2,0c-0.3,3,0.8,5.7,0.9,5.8l0.4,0.8l0.8-0.4c0,0,0.3-0.2,0.8-0.4c0,2.4,0.8,4.4,0.9,4.5l0.4,0.9l0.8-0.4
	c0,0,0.3-0.1,0.6-0.3c0.8,2.8,2.6,4.8,2.7,4.9l0.6,0.7l0.6-0.7c0.1-0.1,2-2.1,2.7-4.9c0.4,0.2,0.6,0.3,0.6,0.4l0.8,0.4l0.4-0.8
	c0-0.1,0.9-2,0.9-4.4c0.4,0.2,0.6,0.3,0.6,0.3l0.8,0.4l0.4-0.8c0.1-0.1,1.2-2.8,0.8-5.8c0.1,0,0.2,0,0.3,0l1,0.1v-1
	C25,12.5,24.9,4,15.9,3.5z M9.4,16.8c-0.4,0.4-0.8,0.6-1.1,0.9c-0.3-1-0.6-2.7-0.3-4.5c0,0,0.1,0,0.1,0c0.7-0.2,1.4-0.4,1.9-0.7
	c0,0,0.1,0,0.1-0.1c0.5-0.3,1-0.5,1.3-0.8c0.2,0.3,0.4,0.6,0.6,0.8c0,0,0.1,0.1,0.1,0.2c0,0.2-0.1,0.3-0.1,0.5c0,0.1,0,0.2-0.1,0.3
	c-0.1,0.4-0.3,0.7-0.4,1C11,15.2,10.3,16,9.4,16.8z M11.8,21.7C11.8,21.7,11.7,21.7,11.8,21.7c-0.3,0.2-0.5,0.4-0.7,0.5
	c-0.3-1-0.6-2.6-0.3-4.3c0.3-0.3,0.6-0.6,0.9-0.9c0.1,0.4,0.3,0.8,0.5,1.2c0,0.1,0,0.1,0.1,0.2c0,0.1,0.1,0.1,0.1,0.2
	c0.2,0.4,0.4,0.8,0.6,1.2c0.1,0.1,0.1,0.2,0.2,0.3c0.1,0.1,0.1,0.2,0.2,0.3c-0.1,0.1-0.2,0.2-0.2,0.3C12.6,21,12.2,21.4,11.8,21.7z
	 M13.1,15c0.1-0.3,0.3-0.6,0.4-0.9c0,0,0,0,0.1,0.1c0.6,0.5,1.4,0.9,1.4,0.9s0.8-0.4,1.4-0.9c0,0,0,0,0,0c0.1,0.2,0.2,0.4,0.3,0.6
	c0.1,0.2,0.1,0.3,0.2,0.4c0,0.3-0.1,0.7-0.1,1c0,0.1,0,0.1,0,0.1c-0.1,0.4-0.3,0.8-0.4,1.3c0,0.1,0,0.1-0.1,0.2
	c0,0.1-0.1,0.1-0.1,0.2c-0.4,0.9-0.9,1.5-1.1,1.9l0,0c-0.4-0.5-0.8-1.2-1.2-2c0,0,0-0.1,0-0.1c-0.2-0.5-0.4-0.9-0.5-1.4
	c0-0.1,0-0.1,0-0.2C13.2,15.7,13.1,15.3,13.1,15z M15,26.8c-0.6-0.8-1.5-2.3-1.8-4c0.1-0.1,0.2-0.2,0.3-0.2c0.2-0.2,0.4-0.4,0.6-0.6
	c0.1-0.1,0.1-0.1,0.2-0.2c0,0,0.1,0.1,0.1,0.1l0.5,0.5l0.1,0.1l0.3-0.3l0.3-0.4c0,0,0,0,0,0c0.1,0.1,0.2,0.2,0.3,0.2
	c0.2,0.2,0.4,0.4,0.6,0.5c0.1,0.1,0.2,0.2,0.3,0.3C16.5,24.5,15.6,26,15,26.8z M18.9,22.1c-0.2-0.1-0.4-0.3-0.6-0.5
	c-0.2-0.2-0.5-0.4-0.8-0.7c-0.1-0.1-0.2-0.2-0.2-0.3c-0.1-0.1-0.3-0.3-0.4-0.5c0,0,0,0,0-0.1c0.4-0.5,0.7-1.1,1-1.8
	c0.1-0.2,0.2-0.5,0.3-0.7c0.1-0.2,0.2-0.4,0.2-0.6c0.3,0.3,0.6,0.6,1,1C19.5,19.7,19.2,21.2,18.9,22.1z M21.6,17.6
	c-0.3-0.2-0.6-0.4-0.9-0.7l-0.1-0.1c-0.9-0.7-1.6-1.5-2.1-2.4c-0.2-0.4-0.4-0.7-0.5-1.2c-0.1-0.2-0.1-0.4-0.2-0.6
	c0.1-0.1,0.2-0.2,0.2-0.3c0.2-0.2,0.4-0.6,0.6-0.8c0.2,0.1,0.4,0.2,0.6,0.4c0.1,0.1,0.3,0.2,0.5,0.3c0.5,0.2,1,0.5,1.7,0.7
	c0.2,0,0.4,0.1,0.5,0.1C22.3,14.9,21.9,16.6,21.6,17.6z M22.9,11.6c-2.7-0.6-3.7-1.8-3.7-1.9l-0.9-1.3l-0.7,1.4
	c-0.2,0.6-0.6,1.1-1,1.6l-0.5,0.6c-0.1,0.1-0.7,0.7-0.9,0.9C15.2,12.9,15.1,13,15,13c-0.1-0.1-0.2-0.1-0.3-0.2c-0.3-0.2-1-0.9-1-0.9
	s-0.4-0.4-0.4-0.5c-0.4-0.5-0.7-1-1-1.6l-0.5-1l-0.1-0.3l0,0l0,0L11.3,9l-0.5,0.7c0,0-0.1,0.1-0.3,0.3C10.1,10.4,9,11.2,7,11.6
	c0,0-0.1,0-0.1,0c0.3-2,1.8-6.4,8.1-6.4c0,0,0,0,0,0c0,0,0,0,0,0c6.3,0,7.8,4.4,8.1,6.4C23,11.6,23,11.6,22.9,11.6z"/>
<path class="st0" d="M7.3,3.5L7,3.5c0,0-0.1,0-0.1,0c0.3-0.4,0.4-0.9,0.4-1c0-0.2,0-0.8,0-0.8c0-0.1-0.1-0.2-0.2-0.2
	S6.8,1.6,6.8,1.8v0.5c-0.3,0-0.7,0.1-1,0.3c0-0.6-0.3-1-0.5-1.2V0.5c0-0.1-0.1-0.2-0.2-0.2S4.7,0.4,4.7,0.5v0.9
	C4.6,1.6,4.3,2.1,4.3,2.6c-0.3-0.2-0.8-0.3-1-0.3V1.8c0-0.1-0.1-0.2-0.2-0.2S2.7,1.6,2.7,1.8c0,0,0,0.6,0,0.8c0,0,0.1,0.5,0.4,1
	C3,3.5,3,3.5,3,3.5l-0.3,0l0,0.3c0,0,0.1,0.5,0.4,1C3,4.8,3,4.8,3,4.8l-0.3,0l0,0.3c0,0,0.1,0.5,0.4,1C3,6,3,6,3,6L2.7,6l0,0.3
	c0,0,0.1,0.8,0.7,1.3C3.9,7.9,4.5,8,4.7,8c0,0,0,0,0,0v1.5c0,0.1,0.1,0.2,0.2,0.2s0.2-0.1,0.2-0.2V8c0,0,0,0,0,0
	c0.2,0,0.8,0,1.3-0.4c0.6-0.5,0.7-1.3,0.7-1.3l0-0.3L7,6C7,6,7,6,6.9,6c0.3-0.4,0.4-0.9,0.4-1l0-0.3L7,4.8c0,0-0.1,0-0.1,0
	c0.3-0.4,0.4-0.9,0.4-1L7.3,3.5z M6,5.6c0.2-0.2,0.5-0.3,0.7-0.3C6.6,5.5,6.5,5.7,6.3,5.9C6,6.1,5.8,6.2,5.5,6.2
	C5.6,6,5.7,5.7,6,5.6z M5,6.3c0-0.2-0.1-0.5-0.3-0.8c0,0,0,0,0.1,0c0,0,0.1,0,0.1,0l0.2,0l0.2,0c0,0,0,0,0.1,0c0,0,0,0,0.1,0
	C5.1,5.8,5,6.1,5,6.3z M4.5,6.2C4.2,6.2,4,6.1,3.7,5.9C3.5,5.7,3.4,5.5,3.3,5.3c0.2,0,0.5,0.1,0.7,0.3C4.3,5.7,4.4,6,4.5,6.2z
	 M5,1.9c0.1,0.2,0.2,0.5,0.2,0.7C5.2,3,5.1,3.2,5,3.4C4.9,3.2,4.8,3,4.8,2.7C4.8,2.4,4.9,2.1,5,1.9z M4.7,4.3
	C4.8,4.3,4.8,4.3,4.7,4.3l0.3,0l0.2,0c0,0,0,0,0.1,0c0,0,0,0,0.1,0C5.1,4.6,5,4.9,5,5.1C5,4.9,4.9,4.6,4.7,4.3
	C4.7,4.3,4.7,4.3,4.7,4.3z M4,4.3C4.3,4.5,4.4,4.8,4.5,5C4.2,5,4,4.9,3.7,4.7C3.5,4.5,3.4,4.2,3.3,4C3.5,4.1,3.8,4.1,4,4.3z M6,4.3
	C6.2,4.1,6.5,4.1,6.7,4C6.6,4.2,6.5,4.5,6.3,4.7C6,4.9,5.8,5,5.5,5C5.6,4.8,5.7,4.5,6,4.3z M6.7,2.8C6.6,3,6.5,3.3,6.3,3.5
	C6,3.7,5.8,3.7,5.5,3.8C5.6,3.5,5.7,3.3,6,3.1C6.2,2.9,6.5,2.8,6.7,2.8z M4,3.1c0.2,0.2,0.3,0.5,0.4,0.7C4.2,3.7,4,3.7,3.7,3.5
	C3.5,3.3,3.4,3,3.3,2.8C3.5,2.8,3.8,2.9,4,3.1z M3.7,7.2C3.5,7,3.4,6.7,3.3,6.5c0.2,0,0.5,0.1,0.7,0.3s0.3,0.5,0.4,0.7
	C4.2,7.4,4,7.4,3.7,7.2z M5,7.6C5,7.4,4.9,7,4.7,6.7c0,0,0,0,0.1,0c0,0,0.1,0,0.1,0l0.2,0l0.2,0c0,0,0,0,0.1,0c0,0,0,0,0.1,0
	C5.1,7,5,7.4,5,7.6z M6.3,7.2C6,7.4,5.8,7.4,5.5,7.5C5.6,7.3,5.7,7,6,6.8c0.2-0.2,0.5-0.3,0.7-0.3C6.6,6.7,6.5,7,6.3,7.2z"/>
</svg>
