<?xml version="1.0" encoding="utf-8"?>
<!-- Generator: Adobe Illustrator 26.1.0, SVG Export Plug-In . SVG Version: 6.00 Build 0)  -->
<svg version="1.1" id="Layer_2" xmlns="http://www.w3.org/2000/svg" xmlns:xlink="http://www.w3.org/1999/xlink" x="0px" y="0px"
	 viewBox="0 0 30 30" style="enable-background:new 0 0 30 30;" xml:space="preserve">
<style type="text/css">
	.st0{display:none;}
</style>
<path class="st0" d="M15.9,3.5l0-2.1c0-0.5-0.4-0.9-0.9-0.9c0,0,0,0,0,0c-0.5,0-0.9,0.4-0.9,0.9l0,2.1C5.1,4,5,12.5,5,12.6v1l1-0.1
	c0.1,0,0.1,0,0.2,0c-0.3,3,0.8,5.7,0.9,5.8l0.4,0.8l0.8-0.4c0,0,0.3-0.2,0.8-0.4c0,2.4,0.8,4.4,0.9,4.5l0.4,0.9l0.8-0.4
	c0,0,0.3-0.1,0.6-0.3c0.8,2.8,2.6,4.8,2.7,4.9l0.6,0.7l0.6-0.7c0.1-0.1,2-2.1,2.7-4.9c0.4,0.2,0.6,0.3,0.6,0.4l0.8,0.4l0.4-0.8
	c0-0.1,0.9-2,0.9-4.4c0.4,0.2,0.6,0.3,0.6,0.3l0.8,0.4l0.4-0.8c0.1-0.1,1.2-2.8,0.8-5.8c0.1,0,0.2,0,0.3,0l1,0.1v-1
	C25,12.5,24.9,4,15.9,3.5z M9.4,16.8c-0.4,0.4-0.8,0.6-1.1,0.9c-0.3-1-0.6-2.7-0.3-4.5c0,0,0.1,0,0.1,0c0.7-0.2,1.4-0.4,1.9-0.7
	c0,0,0.1,0,0.1-0.1c0.5-0.3,1-0.5,1.3-0.8c0.2,0.3,0.4,0.6,0.6,0.8c0,0,0.1,0.1,0.1,0.2c0,0.2-0.1,0.3-0.1,0.5c0,0.1,0,0.2-0.1,0.3
	c-0.1,0.4-0.3,0.7-0.4,1C11,15.2,10.3,16,9.4,16.8z M11.8,21.7C11.8,21.7,11.7,21.7,11.8,21.7c-0.3,0.2-0.5,0.4-0.7,0.5
	c-0.3-1-0.6-2.6-0.3-4.3c0.3-0.3,0.6-0.6,0.9-0.9c0.1,0.4,0.3,0.8,0.5,1.2c0,0.1,0,0.1,0.1,0.2c0,0.1,0.1,0.1,0.1,0.2
	c0.2,0.4,0.4,0.8,0.6,1.2c0.1,0.1,0.1,0.2,0.2,0.3c0.1,0.1,0.1,0.2,0.2,0.3c-0.1,0.1-0.2,0.2-0.2,0.3C12.6,21,12.2,21.4,11.8,21.7z
	 M13.1,15c0.1-0.3,0.3-0.6,0.4-0.9c0,0,0,0,0.1,0.1c0.6,0.5,1.4,0.9,1.4,0.9s0.8-0.4,1.4-0.9c0,0,0,0,0,0c0.1,0.2,0.2,0.4,0.3,0.6
	c0.1,0.2,0.1,0.3,0.2,0.4c0,0.3-0.1,0.7-0.1,1c0,0.1,0,0.1,0,0.1c-0.1,0.4-0.3,0.8-0.4,1.3c0,0.1,0,0.1-0.1,0.2
	c0,0.1-0.1,0.1-0.1,0.2c-0.4,0.9-0.9,1.5-1.1,1.9l0,0c-0.4-0.5-0.8-1.2-1.2-2c0,0,0-0.1,0-0.1c-0.2-0.5-0.4-0.9-0.5-1.4
	c0-0.1,0-0.1,0-0.2C13.2,15.7,13.1,15.3,13.1,15z M15,26.8c-0.6-0.8-1.5-2.3-1.8-4c0.1-0.1,0.2-0.2,0.3-0.2c0.2-0.2,0.4-0.4,0.6-0.6
	c0.1-0.1,0.1-0.1,0.2-0.2c0,0,0.1,0.1,0.1,0.1l0.5,0.5l0.1,0.1l0.3-0.3l0.3-0.4c0,0,0,0,0,0c0.1,0.1,0.2,0.2,0.3,0.2
	c0.2,0.2,0.4,0.4,0.6,0.5c0.1,0.1,0.2,0.2,0.3,0.3C16.5,24.5,15.6,26,15,26.8z M18.9,22.1c-0.2-0.1-0.4-0.3-0.6-0.5
	c-0.2-0.2-0.5-0.4-0.8-0.7c-0.1-0.1-0.2-0.2-0.2-0.3c-0.1-0.1-0.3-0.3-0.4-0.5c0,0,0,0,0-0.1c0.4-0.5,0.7-1.1,1-1.8
	c0.1-0.2,0.2-0.5,0.3-0.7c0.1-0.2,0.2-0.4,0.2-0.6c0.3,0.3,0.6,0.6,1,1C19.5,19.7,19.2,21.2,18.9,22.1z M21.6,17.6
	c-0.3-0.2-0.6-0.4-0.9-0.7l-0.1-0.1c-0.9-0.7-1.6-1.5-2.1-2.4c-0.2-0.4-0.4-0.7-0.5-1.2c-0.1-0.2-0.1-0.4-0.2-0.6
	c0.1-0.1,0.2-0.2,0.2-0.3c0.2-0.2,0.4-0.6,0.6-0.8c0.2,0.1,0.4,0.2,0.6,0.4c0.1,0.1,0.3,0.2,0.5,0.3c0.5,0.2,1,0.5,1.7,0.7
	c0.2,0,0.4,0.1,0.5,0.1C22.3,14.9,21.9,16.6,21.6,17.6z M22.9,11.6c-2.7-0.6-3.7-1.8-3.7-1.9l-0.9-1.3l-0.7,1.4
	c-0.2,0.6-0.6,1.1-1,1.6l-0.5,0.6c-0.1,0.1-0.7,0.7-0.9,0.9C15.2,12.9,15.1,13,15,13c-0.1-0.1-0.2-0.1-0.3-0.2c-0.3-0.2-1-0.9-1-0.9
	s-0.4-0.4-0.4-0.5c-0.4-0.5-0.7-1-1-1.6l-0.5-1l-0.1-0.3l0,0l0,0L11.3,9l-0.5,0.7c0,0-0.1,0.1-0.3,0.3C10.1,10.4,9,11.2,7,11.6
	c0,0-0.1,0-0.1,0c0.3-2,1.8-6.4,8.1-6.4c0,0,0,0,0,0c0,0,0,0,0,0c6.3,0,7.8,4.4,8.1,6.4C23,11.6,23,11.6,22.9,11.6z"/>
<path d="M22,10.5l-0.8-0.1c0,0-0.2,0-0.4,0c0.9-1.3,1.1-2.9,1.1-2.9c0-0.6,0-2.4,0-2.4c0-0.4-0.3-0.8-0.8-0.8
	c-0.4,0-0.8,0.3-0.8,0.8v1.6c-0.8,0.1-2,0.3-3.1,1.1C17.2,6,16.2,4.5,15.8,4V1.3c0-0.4-0.3-0.8-0.8-0.8s-0.8,0.3-0.8,0.8V4
	c-0.4,0.5-1.4,1.9-1.5,3.7c-1.1-0.8-2.3-1-3.1-1.1V5.1c0-0.4-0.3-0.8-0.8-0.8c-0.4,0-0.8,0.3-0.8,0.8c0,0,0,1.8,0,2.4
	c0,0.1,0.2,1.6,1.1,2.9c-0.2,0-0.4,0-0.4,0L8,10.5l0.1,0.8c0,0.1,0.2,1.6,1.1,2.9c-0.2,0-0.4,0-0.4,0L8,14.3l0.1,0.8
	c0,0.1,0.2,1.6,1.1,2.9c-0.2,0-0.4,0-0.4,0L8,18.1l0.1,0.8c0,0.1,0.3,2.5,2,4c1.4,1.2,3.3,1.3,4,1.3c0.1,0,0.1,0,0.1,0v4.6
	c0,0.4,0.3,0.8,0.8,0.8s0.8-0.3,0.8-0.8v-4.6c0,0,0,0,0.1,0c0.7,0,2.6-0.1,4-1.3c1.7-1.4,2-3.8,2-4l0.1-0.8L21.2,18c0,0-0.2,0-0.4,0
	c0.9-1.3,1.1-2.9,1.1-2.9l0.1-0.8l-0.8-0.1c0,0-0.2,0-0.4,0c0.9-1.3,1.1-2.9,1.1-2.9L22,10.5z M17.9,16.7c0.7-0.6,1.6-0.8,2.2-0.9
	c-0.2,0.6-0.6,1.5-1.3,2c-0.7,0.6-1.6,0.8-2.2,0.9C16.9,18.1,17.2,17.3,17.9,16.7z M15,19.1c-0.1-0.6-0.4-1.6-1.1-2.5
	c0,0,0.1,0,0.2,0c0.1,0,0.2,0,0.2,0l0.6,0l0.6,0c0,0,0.1,0,0.2,0c0,0,0.1,0,0.2,0C15.4,17.5,15.1,18.5,15,19.1z M13.3,18.8
	c-0.7-0.1-1.5-0.3-2.2-0.9c-0.7-0.6-1.1-1.4-1.3-2c0.7,0.1,1.5,0.3,2.2,0.9C12.8,17.3,13.1,18.1,13.3,18.8z M15,5.6
	c0.4,0.6,0.8,1.4,0.8,2.3c0,0.9-0.4,1.7-0.7,2.3c-0.4-0.6-0.8-1.4-0.8-2.3C14.2,7,14.6,6.2,15,5.6z M14.1,12.8c0.1,0,0.2,0,0.2,0
	l0.6,0l0.6,0c0,0,0.1,0,0.2,0c0,0,0.1,0,0.2,0c-0.6,0.9-0.9,1.9-1.1,2.5c-0.1-0.6-0.4-1.6-1.1-2.5C14,12.8,14.1,12.8,14.1,12.8z
	 M12.1,12.9c0.7,0.6,1.1,1.4,1.3,2c-0.7-0.1-1.5-0.3-2.2-0.9c-0.7-0.6-1.1-1.4-1.3-2C10.5,12.1,11.4,12.4,12.1,12.9z M17.9,12.9
	c0.7-0.6,1.6-0.8,2.2-0.9c-0.2,0.6-0.6,1.5-1.3,2c-0.7,0.6-1.6,0.8-2.2,0.9C16.9,14.3,17.2,13.5,17.9,12.9z M20.2,8.2
	c-0.2,0.6-0.6,1.5-1.3,2c-0.7,0.6-1.6,0.8-2.2,0.9c0.2-0.6,0.6-1.5,1.3-2C18.6,8.6,19.5,8.3,20.2,8.2z M12.1,9.1
	c0.7,0.6,1.1,1.4,1.3,2c-0.7-0.1-1.5-0.3-2.2-0.9c-0.7-0.6-1.1-1.4-1.3-2C10.5,8.3,11.4,8.6,12.1,9.1z M11.1,21.7
	c-0.7-0.6-1.1-1.4-1.3-2c0.7,0.1,1.5,0.3,2.2,0.9c0.7,0.6,1.1,1.4,1.3,2C12.7,22.5,11.8,22.2,11.1,21.7z M15,22.8
	c-0.1-0.6-0.4-1.6-1.1-2.5c0.1,0,0.1,0,0.2,0c0.1,0,0.2,0,0.2,0l0.6,0l0.6,0c0,0,0.1,0,0.2,0c0,0,0.1,0,0.2,0
	C15.4,21.3,15.1,22.3,15,22.8z M18.9,21.7c-0.7,0.6-1.6,0.8-2.2,0.9c0.2-0.6,0.6-1.5,1.3-2c0.7-0.6,1.6-0.8,2.2-0.9
	C20,20.3,19.6,21.1,18.9,21.7z"/>
</svg>
